<svg xmlns="http://www.w3.org/2000/svg" width="256" height="256" viewBox="0 0 96 96" role="img" aria-label="PufferDesk">
  <defs>
    <linearGradient id="pufferdesk-icon-bg" x1="8" y1="8" x2="88" y2="88" gradientUnits="userSpaceOnUse">
      <stop offset="0" stop-color="#5FE0F3"/>
      <stop offset="0.42" stop-color="#2458CA"/>
      <stop offset="1" stop-color="#6F54FF"/>
    </linearGradient>
    <radialGradient id="pufferdesk-icon-glow" cx="30" cy="22" r="70" gradientUnits="userSpaceOnUse">
      <stop offset="0" stop-color="#FFFFFF" stop-opacity="0.48"/>
      <stop offset="0.55" stop-color="#FFFFFF" stop-opacity="0"/>
    </radialGradient>
  </defs>
  <rect width="96" height="96" rx="22" fill="url(#pufferdesk-icon-bg)"/>
  <rect width="96" height="96" rx="22" fill="url(#pufferdesk-icon-glow)"/>
  <circle cx="48" cy="48" r="11" fill="#FFFFFF"/>
  <path d="M48 66A18 18 0 1 1 30 48 18 18 0 1 1 48 30a18 18 0 1 1 18 18 18 18 0 1 1-18 18Z" fill="none" stroke="#FFFFFF" stroke-width="7" stroke-linecap="round" stroke-linejoin="round"/>
  <path d="M48 30v6M30 48h6M66 48h-6M48 66v-6M32 32l7.5 7.5M56.5 39.5 64 32M32 64l7.5-7.5M56.5 56.5 64 64" fill="none" stroke="#B7F2FF" stroke-width="5" stroke-linecap="round" stroke-linejoin="round"/>
</svg>
